<svg width="28" height="29" viewBox="0 0 28 29" fill="none" xmlns="http://www.w3.org/2000/svg">
<rect y="0.410156" width="28" height="28" rx="14" fill="#E54B4B"/>
<path d="M12.9844 17.9102V19.4102H5.35938V18.1211L9.0625 14.082C9.46875 13.6237 9.78906 13.2279 10.0234 12.8945C10.2578 12.5612 10.4219 12.2617 10.5156 11.9961C10.6146 11.7253 10.6641 11.4622 10.6641 11.207C10.6641 10.8477 10.5964 10.5326 10.4609 10.2617C10.3307 9.98568 10.138 9.76953 9.88281 9.61328C9.6276 9.45182 9.31771 9.37109 8.95312 9.37109C8.53125 9.37109 8.17708 9.46224 7.89062 9.64453C7.60417 9.82682 7.38802 10.0794 7.24219 10.4023C7.09635 10.7201 7.02344 11.0846 7.02344 11.4961H5.14062C5.14062 10.8346 5.29167 10.2305 5.59375 9.68359C5.89583 9.13151 6.33333 8.69401 6.90625 8.37109C7.47917 8.04297 8.16927 7.87891 8.97656 7.87891C9.73698 7.87891 10.3828 8.00651 10.9141 8.26172C11.4453 8.51693 11.849 8.87891 12.125 9.34766C12.4062 9.81641 12.5469 10.3711 12.5469 11.0117C12.5469 11.3659 12.4896 11.7174 12.375 12.0664C12.2604 12.4154 12.0964 12.7643 11.8828 13.1133C11.6745 13.457 11.4271 13.8034 11.1406 14.1523C10.8542 14.4961 10.5391 14.8451 10.1953 15.1992L7.73438 17.9102H12.9844ZM22.7891 15.3555V16.8555H14.5859L14.5234 15.7227L19.4297 8.03516H20.9375L19.3047 10.832L16.4844 15.3555H22.7891ZM21.3672 8.03516V19.4102H19.4844V8.03516H21.3672Z" fill="white"/>
</svg>
