<svg width="28" height="29" viewBox="0 0 28 29" fill="none" xmlns="http://www.w3.org/2000/svg">
<rect y="0.410156" width="28" height="28" rx="14" fill="#E54B4B"/>
<path d="M10.5 7.99609V19.4102H8.61719V10.2305L5.82812 11.1758V9.62109L10.2734 7.99609H10.5ZM22.3906 16.3086C22.3906 17.0169 22.2266 17.6133 21.8984 18.0977C21.5703 18.582 21.1224 18.9492 20.5547 19.1992C19.9922 19.444 19.3568 19.5664 18.6484 19.5664C17.9401 19.5664 17.3021 19.444 16.7344 19.1992C16.1667 18.9492 15.7188 18.582 15.3906 18.0977C15.0625 17.6133 14.8984 17.0169 14.8984 16.3086C14.8984 15.8398 14.9896 15.4154 15.1719 15.0352C15.3542 14.6497 15.612 14.319 15.9453 14.043C16.2839 13.7617 16.6797 13.5456 17.1328 13.3945C17.5911 13.2435 18.0911 13.168 18.6328 13.168C19.3516 13.168 19.9948 13.3008 20.5625 13.5664C21.1302 13.832 21.5755 14.1992 21.8984 14.668C22.2266 15.1367 22.3906 15.6836 22.3906 16.3086ZM20.5 16.2148C20.5 15.8346 20.4219 15.5013 20.2656 15.2148C20.1094 14.9284 19.8906 14.707 19.6094 14.5508C19.3281 14.3945 19.0026 14.3164 18.6328 14.3164C18.2578 14.3164 17.9323 14.3945 17.6562 14.5508C17.3802 14.707 17.1641 14.9284 17.0078 15.2148C16.8568 15.5013 16.7812 15.8346 16.7812 16.2148C16.7812 16.6003 16.8568 16.9336 17.0078 17.2148C17.1589 17.4909 17.375 17.7018 17.6562 17.8477C17.9375 17.9935 18.2682 18.0664 18.6484 18.0664C19.0286 18.0664 19.3568 17.9935 19.6328 17.8477C19.9089 17.7018 20.1224 17.4909 20.2734 17.2148C20.4245 16.9336 20.5 16.6003 20.5 16.2148ZM22.1328 11.0273C22.1328 11.5951 21.9818 12.1003 21.6797 12.543C21.3828 12.9857 20.9714 13.3346 20.4453 13.5898C19.9193 13.8398 19.3203 13.9648 18.6484 13.9648C17.9714 13.9648 17.3672 13.8398 16.8359 13.5898C16.3099 13.3346 15.8958 12.9857 15.5938 12.543C15.2969 12.1003 15.1484 11.5951 15.1484 11.0273C15.1484 10.3503 15.2969 9.77995 15.5938 9.31641C15.8958 8.84766 16.3099 8.49089 16.8359 8.24609C17.362 8.0013 17.9635 7.87891 18.6406 7.87891C19.3177 7.87891 19.9193 8.0013 20.4453 8.24609C20.9714 8.49089 21.3828 8.84766 21.6797 9.31641C21.9818 9.77995 22.1328 10.3503 22.1328 11.0273ZM20.25 11.0898C20.25 10.7513 20.1823 10.4544 20.0469 10.1992C19.9167 9.9388 19.7318 9.73568 19.4922 9.58984C19.2526 9.44401 18.9688 9.37109 18.6406 9.37109C18.3125 9.37109 18.0286 9.44141 17.7891 9.58203C17.5495 9.72266 17.3646 9.92057 17.2344 10.1758C17.1042 10.431 17.0391 10.7357 17.0391 11.0898C17.0391 11.4388 17.1042 11.7435 17.2344 12.0039C17.3646 12.2591 17.5495 12.4596 17.7891 12.6055C18.0339 12.7513 18.3203 12.8242 18.6484 12.8242C18.9766 12.8242 19.2604 12.7513 19.5 12.6055C19.7396 12.4596 19.9245 12.2591 20.0547 12.0039C20.1849 11.7435 20.25 11.4388 20.25 11.0898Z" fill="white"/>
</svg>
