<svg width="28" height="29" viewBox="0 0 28 29" fill="none" xmlns="http://www.w3.org/2000/svg">
<rect y="0.410156" width="28" height="28" rx="14" fill="#E54B4B"/>
<path d="M12.9844 17.9102V19.4102H5.35938V18.1211L9.0625 14.082C9.46875 13.6237 9.78906 13.2279 10.0234 12.8945C10.2578 12.5612 10.4219 12.2617 10.5156 11.9961C10.6146 11.7253 10.6641 11.4622 10.6641 11.207C10.6641 10.8477 10.5964 10.5326 10.4609 10.2617C10.3307 9.98568 10.138 9.76953 9.88281 9.61328C9.6276 9.45182 9.31771 9.37109 8.95312 9.37109C8.53125 9.37109 8.17708 9.46224 7.89062 9.64453C7.60417 9.82682 7.38802 10.0794 7.24219 10.4023C7.09635 10.7201 7.02344 11.0846 7.02344 11.4961H5.14062C5.14062 10.8346 5.29167 10.2305 5.59375 9.68359C5.89583 9.13151 6.33333 8.69401 6.90625 8.37109C7.47917 8.04297 8.16927 7.87891 8.97656 7.87891C9.73698 7.87891 10.3828 8.00651 10.9141 8.26172C11.4453 8.51693 11.849 8.87891 12.125 9.34766C12.4062 9.81641 12.5469 10.3711 12.5469 11.0117C12.5469 11.3659 12.4896 11.7174 12.375 12.0664C12.2604 12.4154 12.0964 12.7643 11.8828 13.1133C11.6745 13.457 11.4271 13.8034 11.1406 14.1523C10.8542 14.4961 10.5391 14.8451 10.1953 15.1992L7.73438 17.9102H12.9844ZM22.3906 16.3086C22.3906 17.0169 22.2266 17.6133 21.8984 18.0977C21.5703 18.582 21.1224 18.9492 20.5547 19.1992C19.9922 19.444 19.3568 19.5664 18.6484 19.5664C17.9401 19.5664 17.3021 19.444 16.7344 19.1992C16.1667 18.9492 15.7188 18.582 15.3906 18.0977C15.0625 17.6133 14.8984 17.0169 14.8984 16.3086C14.8984 15.8398 14.9896 15.4154 15.1719 15.0352C15.3542 14.6497 15.612 14.319 15.9453 14.043C16.2839 13.7617 16.6797 13.5456 17.1328 13.3945C17.5911 13.2435 18.0911 13.168 18.6328 13.168C19.3516 13.168 19.9948 13.3008 20.5625 13.5664C21.1302 13.832 21.5755 14.1992 21.8984 14.668C22.2266 15.1367 22.3906 15.6836 22.3906 16.3086ZM20.5 16.2148C20.5 15.8346 20.4219 15.5013 20.2656 15.2148C20.1094 14.9284 19.8906 14.707 19.6094 14.5508C19.3281 14.3945 19.0026 14.3164 18.6328 14.3164C18.2578 14.3164 17.9323 14.3945 17.6562 14.5508C17.3802 14.707 17.1641 14.9284 17.0078 15.2148C16.8568 15.5013 16.7812 15.8346 16.7812 16.2148C16.7812 16.6003 16.8568 16.9336 17.0078 17.2148C17.1589 17.4909 17.375 17.7018 17.6562 17.8477C17.9375 17.9935 18.2682 18.0664 18.6484 18.0664C19.0286 18.0664 19.3568 17.9935 19.6328 17.8477C19.9089 17.7018 20.1224 17.4909 20.2734 17.2148C20.4245 16.9336 20.5 16.6003 20.5 16.2148ZM22.1328 11.0273C22.1328 11.5951 21.9818 12.1003 21.6797 12.543C21.3828 12.9857 20.9714 13.3346 20.4453 13.5898C19.9193 13.8398 19.3203 13.9648 18.6484 13.9648C17.9714 13.9648 17.3672 13.8398 16.8359 13.5898C16.3099 13.3346 15.8958 12.9857 15.5938 12.543C15.2969 12.1003 15.1484 11.5951 15.1484 11.0273C15.1484 10.3503 15.2969 9.77995 15.5938 9.31641C15.8958 8.84766 16.3099 8.49089 16.8359 8.24609C17.362 8.0013 17.9635 7.87891 18.6406 7.87891C19.3177 7.87891 19.9193 8.0013 20.4453 8.24609C20.9714 8.49089 21.3828 8.84766 21.6797 9.31641C21.9818 9.77995 22.1328 10.3503 22.1328 11.0273ZM20.25 11.0898C20.25 10.7513 20.1823 10.4544 20.0469 10.1992C19.9167 9.9388 19.7318 9.73568 19.4922 9.58984C19.2526 9.44401 18.9688 9.37109 18.6406 9.37109C18.3125 9.37109 18.0286 9.44141 17.7891 9.58203C17.5495 9.72266 17.3646 9.92057 17.2344 10.1758C17.1042 10.431 17.0391 10.7357 17.0391 11.0898C17.0391 11.4388 17.1042 11.7435 17.2344 12.0039C17.3646 12.2591 17.5495 12.4596 17.7891 12.6055C18.0339 12.7513 18.3203 12.8242 18.6484 12.8242C18.9766 12.8242 19.2604 12.7513 19.5 12.6055C19.7396 12.4596 19.9245 12.2591 20.0547 12.0039C20.1849 11.7435 20.25 11.4388 20.25 11.0898Z" fill="white"/>
</svg>
