<svg width="28" height="29" viewBox="0 0 28 29" fill="none" xmlns="http://www.w3.org/2000/svg">
<rect y="0.410156" width="28" height="28" rx="14" fill="#E54B4B"/>
<path d="M15.5469 7.96484H15.7812V9.50391H15.6484C14.9766 9.50391 14.3958 9.60807 13.9062 9.81641C13.4219 10.0247 13.0234 10.3112 12.7109 10.6758C12.3984 11.0404 12.1641 11.4674 12.0078 11.957C11.8568 12.4414 11.7812 12.957 11.7812 13.5039V15.293C11.7812 15.7461 11.8307 16.1471 11.9297 16.4961C12.0286 16.8398 12.1667 17.1289 12.3438 17.3633C12.526 17.5924 12.7344 17.7669 12.9688 17.8867C13.2031 18.0065 13.4557 18.0664 13.7266 18.0664C14.0078 18.0664 14.263 18.0091 14.4922 17.8945C14.7214 17.7747 14.9167 17.6107 15.0781 17.4023C15.2396 17.194 15.362 16.9466 15.4453 16.6602C15.5286 16.3737 15.5703 16.0612 15.5703 15.7227C15.5703 15.3997 15.5286 15.0977 15.4453 14.8164C15.3672 14.5299 15.25 14.2799 15.0938 14.0664C14.9375 13.8477 14.7422 13.6784 14.5078 13.5586C14.2786 13.4336 14.013 13.3711 13.7109 13.3711C13.3359 13.3711 12.9948 13.4596 12.6875 13.6367C12.3854 13.8138 12.1406 14.0456 11.9531 14.332C11.7708 14.6133 11.6719 14.9128 11.6562 15.2305L10.9375 14.9961C10.9792 14.5117 11.0859 14.0768 11.2578 13.6914C11.4349 13.306 11.6667 12.9779 11.9531 12.707C12.2396 12.4362 12.5703 12.2305 12.9453 12.0898C13.3255 11.944 13.7422 11.8711 14.1953 11.8711C14.7474 11.8711 15.2266 11.9753 15.6328 12.1836C16.0391 12.3919 16.375 12.6758 16.6406 13.0352C16.9115 13.3893 17.112 13.7956 17.2422 14.2539C17.3776 14.707 17.4453 15.181 17.4453 15.6758C17.4453 16.2227 17.362 16.7331 17.1953 17.207C17.0286 17.6758 16.7839 18.0872 16.4609 18.4414C16.1432 18.7956 15.7552 19.0716 15.2969 19.2695C14.8438 19.4674 14.3281 19.5664 13.75 19.5664C13.1406 19.5664 12.5964 19.4492 12.1172 19.2148C11.6432 18.9805 11.2396 18.6576 10.9062 18.2461C10.5781 17.8346 10.3281 17.3607 10.1562 16.8242C9.98438 16.2878 9.89844 15.7201 9.89844 15.1211V14.3398C9.89844 13.4753 10.0078 12.6602 10.2266 11.8945C10.4453 11.1237 10.7812 10.444 11.2344 9.85547C11.6927 9.26693 12.2786 8.80599 12.9922 8.47266C13.7057 8.13411 14.5573 7.96484 15.5469 7.96484Z" fill="white"/>
</svg>
