<svg width="28" height="29" viewBox="0 0 28 29" fill="none" xmlns="http://www.w3.org/2000/svg">
<rect y="0.410156" width="28" height="28" rx="14" fill="#E54B4B"/>
<path d="M12.0703 12.8711H13.1953C13.6328 12.8711 13.9948 12.7956 14.2812 12.6445C14.5729 12.4935 14.7891 12.2852 14.9297 12.0195C15.0703 11.7539 15.1406 11.4492 15.1406 11.1055C15.1406 10.7461 15.0755 10.4388 14.9453 10.1836C14.8203 9.92318 14.6276 9.72266 14.3672 9.58203C14.112 9.44141 13.7865 9.37109 13.3906 9.37109C13.0573 9.37109 12.7552 9.4388 12.4844 9.57422C12.2188 9.70443 12.0078 9.89193 11.8516 10.1367C11.6953 10.3763 11.6172 10.6628 11.6172 10.9961H9.72656C9.72656 10.3919 9.88542 9.85547 10.2031 9.38672C10.5208 8.91797 10.9531 8.55078 11.5 8.28516C12.0521 8.01432 12.6719 7.87891 13.3594 7.87891C14.0938 7.87891 14.7344 8.0013 15.2812 8.24609C15.8333 8.48568 16.263 8.84505 16.5703 9.32422C16.8776 9.80339 17.0312 10.3971 17.0312 11.1055C17.0312 11.4284 16.9557 11.7565 16.8047 12.0898C16.6536 12.4232 16.4297 12.7279 16.1328 13.0039C15.8359 13.2747 15.4661 13.4961 15.0234 13.668C14.5807 13.8346 14.0677 13.918 13.4844 13.918H12.0703V12.8711ZM12.0703 14.3398V13.3086H13.4844C14.151 13.3086 14.7188 13.3867 15.1875 13.543C15.6615 13.6992 16.0469 13.9154 16.3438 14.1914C16.6406 14.4622 16.8568 14.7721 16.9922 15.1211C17.1328 15.4701 17.2031 15.8398 17.2031 16.2305C17.2031 16.7617 17.1068 17.2357 16.9141 17.6523C16.7266 18.0638 16.4583 18.4128 16.1094 18.6992C15.7604 18.9857 15.3516 19.2018 14.8828 19.3477C14.4193 19.4935 13.9141 19.5664 13.3672 19.5664C12.8776 19.5664 12.4089 19.4987 11.9609 19.3633C11.513 19.2279 11.112 19.0273 10.7578 18.7617C10.4036 18.4909 10.1224 18.1549 9.91406 17.7539C9.71094 17.3477 9.60938 16.8789 9.60938 16.3477H11.4922C11.4922 16.6862 11.5703 16.9857 11.7266 17.2461C11.888 17.5013 12.112 17.7018 12.3984 17.8477C12.6901 17.9935 13.0234 18.0664 13.3984 18.0664C13.7943 18.0664 14.1354 17.9961 14.4219 17.8555C14.7083 17.7148 14.9271 17.5065 15.0781 17.2305C15.2344 16.9544 15.3125 16.6211 15.3125 16.2305C15.3125 15.7878 15.2266 15.4284 15.0547 15.1523C14.8828 14.8763 14.638 14.6732 14.3203 14.543C14.0026 14.4076 13.6276 14.3398 13.1953 14.3398H12.0703Z" fill="white"/>
</svg>
