<svg width="28" height="29" viewBox="0 0 28 29" fill="none" xmlns="http://www.w3.org/2000/svg">
<rect y="0.410156" width="28" height="28" rx="14" fill="#E54B4B"/>
<path d="M10.5 7.99609V19.4102H8.61719V10.2305L5.82812 11.1758V9.62109L10.2734 7.99609H10.5ZM20.6406 7.96484H20.875V9.50391H20.7422C20.0703 9.50391 19.4896 9.60807 19 9.81641C18.5156 10.0247 18.1172 10.3112 17.8047 10.6758C17.4922 11.0404 17.2578 11.4674 17.1016 11.957C16.9505 12.4414 16.875 12.957 16.875 13.5039V15.293C16.875 15.7461 16.9245 16.1471 17.0234 16.4961C17.1224 16.8398 17.2604 17.1289 17.4375 17.3633C17.6198 17.5924 17.8281 17.7669 18.0625 17.8867C18.2969 18.0065 18.5495 18.0664 18.8203 18.0664C19.1016 18.0664 19.3568 18.0091 19.5859 17.8945C19.8151 17.7747 20.0104 17.6107 20.1719 17.4023C20.3333 17.194 20.4557 16.9466 20.5391 16.6602C20.6224 16.3737 20.6641 16.0612 20.6641 15.7227C20.6641 15.3997 20.6224 15.0977 20.5391 14.8164C20.4609 14.5299 20.3438 14.2799 20.1875 14.0664C20.0312 13.8477 19.8359 13.6784 19.6016 13.5586C19.3724 13.4336 19.1068 13.3711 18.8047 13.3711C18.4297 13.3711 18.0885 13.4596 17.7812 13.6367C17.4792 13.8138 17.2344 14.0456 17.0469 14.332C16.8646 14.6133 16.7656 14.9128 16.75 15.2305L16.0312 14.9961C16.0729 14.5117 16.1797 14.0768 16.3516 13.6914C16.5286 13.306 16.7604 12.9779 17.0469 12.707C17.3333 12.4362 17.6641 12.2305 18.0391 12.0898C18.4193 11.944 18.8359 11.8711 19.2891 11.8711C19.8411 11.8711 20.3203 11.9753 20.7266 12.1836C21.1328 12.3919 21.4688 12.6758 21.7344 13.0352C22.0052 13.3893 22.2057 13.7956 22.3359 14.2539C22.4714 14.707 22.5391 15.181 22.5391 15.6758C22.5391 16.2227 22.4557 16.7331 22.2891 17.207C22.1224 17.6758 21.8776 18.0872 21.5547 18.4414C21.237 18.7956 20.849 19.0716 20.3906 19.2695C19.9375 19.4674 19.4219 19.5664 18.8438 19.5664C18.2344 19.5664 17.6901 19.4492 17.2109 19.2148C16.737 18.9805 16.3333 18.6576 16 18.2461C15.6719 17.8346 15.4219 17.3607 15.25 16.8242C15.0781 16.2878 14.9922 15.7201 14.9922 15.1211V14.3398C14.9922 13.4753 15.1016 12.6602 15.3203 11.8945C15.5391 11.1237 15.875 10.444 16.3281 9.85547C16.7865 9.26693 17.3724 8.80599 18.0859 8.47266C18.7995 8.13411 19.651 7.96484 20.6406 7.96484Z" fill="white"/>
</svg>
