<svg width="28" height="29" viewBox="0 0 28 29" fill="none" xmlns="http://www.w3.org/2000/svg">
<rect y="0.410156" width="28" height="28" rx="14" fill="#E54B4B"/>
<path d="M12.9844 17.9102V19.4102H5.35938V18.1211L9.0625 14.082C9.46875 13.6237 9.78906 13.2279 10.0234 12.8945C10.2578 12.5612 10.4219 12.2617 10.5156 11.9961C10.6146 11.7253 10.6641 11.4622 10.6641 11.207C10.6641 10.8477 10.5964 10.5326 10.4609 10.2617C10.3307 9.98568 10.138 9.76953 9.88281 9.61328C9.6276 9.45182 9.31771 9.37109 8.95312 9.37109C8.53125 9.37109 8.17708 9.46224 7.89062 9.64453C7.60417 9.82682 7.38802 10.0794 7.24219 10.4023C7.09635 10.7201 7.02344 11.0846 7.02344 11.4961H5.14062C5.14062 10.8346 5.29167 10.2305 5.59375 9.68359C5.89583 9.13151 6.33333 8.69401 6.90625 8.37109C7.47917 8.04297 8.16927 7.87891 8.97656 7.87891C9.73698 7.87891 10.3828 8.00651 10.9141 8.26172C11.4453 8.51693 11.849 8.87891 12.125 9.34766C12.4062 9.81641 12.5469 10.3711 12.5469 11.0117C12.5469 11.3659 12.4896 11.7174 12.375 12.0664C12.2604 12.4154 12.0964 12.7643 11.8828 13.1133C11.6745 13.457 11.4271 13.8034 11.1406 14.1523C10.8542 14.4961 10.5391 14.8451 10.1953 15.1992L7.73438 17.9102H12.9844ZM22.3672 12.7695V14.6289C22.3672 15.5195 22.2786 16.2799 22.1016 16.9102C21.9297 17.5352 21.6797 18.043 21.3516 18.4336C21.0234 18.8242 20.6302 19.1107 20.1719 19.293C19.7188 19.4753 19.2109 19.5664 18.6484 19.5664C18.2005 19.5664 17.7839 19.5091 17.3984 19.3945C17.0182 19.2799 16.6745 19.1003 16.3672 18.8555C16.0599 18.6107 15.7969 18.2956 15.5781 17.9102C15.3646 17.5195 15.1979 17.0534 15.0781 16.5117C14.9635 15.9701 14.9062 15.3424 14.9062 14.6289V12.7695C14.9062 11.8737 14.9948 11.1185 15.1719 10.5039C15.349 9.88411 15.6016 9.38151 15.9297 8.99609C16.2578 8.60547 16.6484 8.32161 17.1016 8.14453C17.5599 7.96745 18.0703 7.87891 18.6328 7.87891C19.0859 7.87891 19.5026 7.9362 19.8828 8.05078C20.2682 8.16016 20.612 8.33464 20.9141 8.57422C21.2214 8.8138 21.4818 9.1263 21.6953 9.51172C21.9141 9.89193 22.0807 10.3529 22.1953 10.8945C22.3099 11.431 22.3672 12.056 22.3672 12.7695ZM20.4844 14.8945V12.4883C20.4844 12.0352 20.4583 11.6367 20.4062 11.293C20.3542 10.944 20.276 10.6497 20.1719 10.4102C20.0729 10.1654 19.9479 9.96745 19.7969 9.81641C19.6458 9.66016 19.474 9.54818 19.2812 9.48047C19.0885 9.40755 18.8724 9.37109 18.6328 9.37109C18.3411 9.37109 18.0807 9.42839 17.8516 9.54297C17.6224 9.65234 17.4297 9.82943 17.2734 10.0742C17.1172 10.319 16.9974 10.6419 16.9141 11.043C16.8359 11.4388 16.7969 11.9206 16.7969 12.4883V14.8945C16.7969 15.3529 16.8229 15.7565 16.875 16.1055C16.9271 16.4544 17.0052 16.7539 17.1094 17.0039C17.2135 17.2487 17.3385 17.4518 17.4844 17.6133C17.6354 17.7695 17.8073 17.8841 18 17.957C18.1979 18.0299 18.4141 18.0664 18.6484 18.0664C18.9453 18.0664 19.2083 18.0091 19.4375 17.8945C19.6667 17.7799 19.8594 17.5977 20.0156 17.3477C20.1719 17.0924 20.2891 16.7617 20.3672 16.3555C20.4453 15.9492 20.4844 15.4622 20.4844 14.8945Z" fill="white"/>
</svg>
