<svg width="28" height="29" viewBox="0 0 28 29" fill="none" xmlns="http://www.w3.org/2000/svg">
<rect y="0.410156" width="28" height="28" rx="14" fill="#E54B4B"/>
<path d="M12.9844 17.9102V19.4102H5.35938V18.1211L9.0625 14.082C9.46875 13.6237 9.78906 13.2279 10.0234 12.8945C10.2578 12.5612 10.4219 12.2617 10.5156 11.9961C10.6146 11.7253 10.6641 11.4622 10.6641 11.207C10.6641 10.8477 10.5964 10.5326 10.4609 10.2617C10.3307 9.98568 10.138 9.76953 9.88281 9.61328C9.6276 9.45182 9.31771 9.37109 8.95312 9.37109C8.53125 9.37109 8.17708 9.46224 7.89062 9.64453C7.60417 9.82682 7.38802 10.0794 7.24219 10.4023C7.09635 10.7201 7.02344 11.0846 7.02344 11.4961H5.14062C5.14062 10.8346 5.29167 10.2305 5.59375 9.68359C5.89583 9.13151 6.33333 8.69401 6.90625 8.37109C7.47917 8.04297 8.16927 7.87891 8.97656 7.87891C9.73698 7.87891 10.3828 8.00651 10.9141 8.26172C11.4453 8.51693 11.849 8.87891 12.125 9.34766C12.4062 9.81641 12.5469 10.3711 12.5469 11.0117C12.5469 11.3659 12.4896 11.7174 12.375 12.0664C12.2604 12.4154 12.0964 12.7643 11.8828 13.1133C11.6745 13.457 11.4271 13.8034 11.1406 14.1523C10.8542 14.4961 10.5391 14.8451 10.1953 15.1992L7.73438 17.9102H12.9844ZM16.4688 17.9258H16.625C17.3438 17.9258 17.9427 17.832 18.4219 17.6445C18.9062 17.4518 19.2917 17.1862 19.5781 16.8477C19.8646 16.5091 20.0703 16.1107 20.1953 15.6523C20.3203 15.194 20.3828 14.6966 20.3828 14.1602V12.1992C20.3828 11.7357 20.3333 11.3294 20.2344 10.9805C20.1406 10.6263 20.0052 10.332 19.8281 10.0977C19.6562 9.85807 19.4557 9.67839 19.2266 9.55859C19.0026 9.4388 18.7604 9.37891 18.5 9.37891C18.2135 9.37891 17.9557 9.44401 17.7266 9.57422C17.5026 9.69922 17.3125 9.8737 17.1562 10.0977C17.0052 10.3164 16.888 10.5742 16.8047 10.8711C16.7266 11.1628 16.6875 11.4753 16.6875 11.8086C16.6875 12.1211 16.724 12.4232 16.7969 12.7148C16.875 13.0013 16.9896 13.2565 17.1406 13.4805C17.2917 13.7044 17.4818 13.8815 17.7109 14.0117C17.9401 14.1419 18.2083 14.207 18.5156 14.207C18.8073 14.207 19.0755 14.1523 19.3203 14.043C19.5651 13.9284 19.7786 13.7747 19.9609 13.582C20.1432 13.3893 20.2865 13.1732 20.3906 12.9336C20.4948 12.694 20.5521 12.4492 20.5625 12.1992L21.2812 12.418C21.2812 12.8138 21.1979 13.2044 21.0312 13.5898C20.8698 13.9701 20.6432 14.319 20.3516 14.6367C20.0651 14.9492 19.7292 15.1992 19.3438 15.3867C18.9635 15.5742 18.5495 15.668 18.1016 15.668C17.5599 15.668 17.0807 15.5664 16.6641 15.3633C16.2526 15.1549 15.9089 14.8737 15.6328 14.5195C15.362 14.1654 15.1589 13.7591 15.0234 13.3008C14.888 12.8424 14.8203 12.3607 14.8203 11.8555C14.8203 11.3086 14.9036 10.7956 15.0703 10.3164C15.237 9.83724 15.4792 9.41536 15.7969 9.05078C16.1146 8.68099 16.5 8.39453 16.9531 8.19141C17.4115 7.98307 17.9297 7.87891 18.5078 7.87891C19.1224 7.87891 19.6615 7.9987 20.125 8.23828C20.5885 8.47786 20.9792 8.80859 21.2969 9.23047C21.6146 9.65234 21.8542 10.1419 22.0156 10.6992C22.1771 11.2565 22.2578 11.8555 22.2578 12.4961V13.1602C22.2578 13.832 22.1979 14.4805 22.0781 15.1055C21.9583 15.7253 21.763 16.3008 21.4922 16.832C21.2266 17.3581 20.875 17.8216 20.4375 18.2227C20.0052 18.6185 19.474 18.9284 18.8438 19.1523C18.2188 19.3711 17.4844 19.4805 16.6406 19.4805H16.4688V17.9258Z" fill="white"/>
</svg>
