<svg width="28" height="29" viewBox="0 0 28 29" fill="none" xmlns="http://www.w3.org/2000/svg">
<rect y="0.410156" width="28" height="28" rx="14" fill="#E54B4B"/>
<path d="M7.57031 12.8711H8.69531C9.13281 12.8711 9.49479 12.7956 9.78125 12.6445C10.0729 12.4935 10.2891 12.2852 10.4297 12.0195C10.5703 11.7539 10.6406 11.4492 10.6406 11.1055C10.6406 10.7461 10.5755 10.4388 10.4453 10.1836C10.3203 9.92318 10.1276 9.72266 9.86719 9.58203C9.61198 9.44141 9.28646 9.37109 8.89062 9.37109C8.55729 9.37109 8.25521 9.4388 7.98438 9.57422C7.71875 9.70443 7.50781 9.89193 7.35156 10.1367C7.19531 10.3763 7.11719 10.6628 7.11719 10.9961H5.22656C5.22656 10.3919 5.38542 9.85547 5.70312 9.38672C6.02083 8.91797 6.45312 8.55078 7 8.28516C7.55208 8.01432 8.17188 7.87891 8.85938 7.87891C9.59375 7.87891 10.2344 8.0013 10.7812 8.24609C11.3333 8.48568 11.763 8.84505 12.0703 9.32422C12.3776 9.80339 12.5312 10.3971 12.5312 11.1055C12.5312 11.4284 12.4557 11.7565 12.3047 12.0898C12.1536 12.4232 11.9297 12.7279 11.6328 13.0039C11.3359 13.2747 10.9661 13.4961 10.5234 13.668C10.0807 13.8346 9.56771 13.918 8.98438 13.918H7.57031V12.8711ZM7.57031 14.3398V13.3086H8.98438C9.65104 13.3086 10.2188 13.3867 10.6875 13.543C11.1615 13.6992 11.5469 13.9154 11.8438 14.1914C12.1406 14.4622 12.3568 14.7721 12.4922 15.1211C12.6328 15.4701 12.7031 15.8398 12.7031 16.2305C12.7031 16.7617 12.6068 17.2357 12.4141 17.6523C12.2266 18.0638 11.9583 18.4128 11.6094 18.6992C11.2604 18.9857 10.8516 19.2018 10.3828 19.3477C9.91927 19.4935 9.41406 19.5664 8.86719 19.5664C8.3776 19.5664 7.90885 19.4987 7.46094 19.3633C7.01302 19.2279 6.61198 19.0273 6.25781 18.7617C5.90365 18.4909 5.6224 18.1549 5.41406 17.7539C5.21094 17.3477 5.10938 16.8789 5.10938 16.3477H6.99219C6.99219 16.6862 7.07031 16.9857 7.22656 17.2461C7.38802 17.5013 7.61198 17.7018 7.89844 17.8477C8.1901 17.9935 8.52344 18.0664 8.89844 18.0664C9.29427 18.0664 9.63542 17.9961 9.92188 17.8555C10.2083 17.7148 10.4271 17.5065 10.5781 17.2305C10.7344 16.9544 10.8125 16.6211 10.8125 16.2305C10.8125 15.7878 10.7266 15.4284 10.5547 15.1523C10.3828 14.8763 10.138 14.6732 9.82031 14.543C9.5026 14.4076 9.1276 14.3398 8.69531 14.3398H7.57031ZM22.3672 12.7695V14.6289C22.3672 15.5195 22.2786 16.2799 22.1016 16.9102C21.9297 17.5352 21.6797 18.043 21.3516 18.4336C21.0234 18.8242 20.6302 19.1107 20.1719 19.293C19.7188 19.4753 19.2109 19.5664 18.6484 19.5664C18.2005 19.5664 17.7839 19.5091 17.3984 19.3945C17.0182 19.2799 16.6745 19.1003 16.3672 18.8555C16.0599 18.6107 15.7969 18.2956 15.5781 17.9102C15.3646 17.5195 15.1979 17.0534 15.0781 16.5117C14.9635 15.9701 14.9062 15.3424 14.9062 14.6289V12.7695C14.9062 11.8737 14.9948 11.1185 15.1719 10.5039C15.349 9.88411 15.6016 9.38151 15.9297 8.99609C16.2578 8.60547 16.6484 8.32161 17.1016 8.14453C17.5599 7.96745 18.0703 7.87891 18.6328 7.87891C19.0859 7.87891 19.5026 7.9362 19.8828 8.05078C20.2682 8.16016 20.612 8.33464 20.9141 8.57422C21.2214 8.8138 21.4818 9.1263 21.6953 9.51172C21.9141 9.89193 22.0807 10.3529 22.1953 10.8945C22.3099 11.431 22.3672 12.056 22.3672 12.7695ZM20.4844 14.8945V12.4883C20.4844 12.0352 20.4583 11.6367 20.4062 11.293C20.3542 10.944 20.276 10.6497 20.1719 10.4102C20.0729 10.1654 19.9479 9.96745 19.7969 9.81641C19.6458 9.66016 19.474 9.54818 19.2812 9.48047C19.0885 9.40755 18.8724 9.37109 18.6328 9.37109C18.3411 9.37109 18.0807 9.42839 17.8516 9.54297C17.6224 9.65234 17.4297 9.82943 17.2734 10.0742C17.1172 10.319 16.9974 10.6419 16.9141 11.043C16.8359 11.4388 16.7969 11.9206 16.7969 12.4883V14.8945C16.7969 15.3529 16.8229 15.7565 16.875 16.1055C16.9271 16.4544 17.0052 16.7539 17.1094 17.0039C17.2135 17.2487 17.3385 17.4518 17.4844 17.6133C17.6354 17.7695 17.8073 17.8841 18 17.957C18.1979 18.0299 18.4141 18.0664 18.6484 18.0664C18.9453 18.0664 19.2083 18.0091 19.4375 17.8945C19.6667 17.7799 19.8594 17.5977 20.0156 17.3477C20.1719 17.0924 20.2891 16.7617 20.3672 16.3555C20.4453 15.9492 20.4844 15.4622 20.4844 14.8945Z" fill="white"/>
</svg>
