<svg width="28" height="29" viewBox="0 0 28 29" fill="none" xmlns="http://www.w3.org/2000/svg">
<rect y="0.410156" width="28" height="28" rx="14" fill="#E54B4B"/>
<path d="M17.4844 17.9102V19.4102H9.85938V18.1211L13.5625 14.082C13.9688 13.6237 14.2891 13.2279 14.5234 12.8945C14.7578 12.5612 14.9219 12.2617 15.0156 11.9961C15.1146 11.7253 15.1641 11.4622 15.1641 11.207C15.1641 10.8477 15.0964 10.5326 14.9609 10.2617C14.8307 9.98568 14.638 9.76953 14.3828 9.61328C14.1276 9.45182 13.8177 9.37109 13.4531 9.37109C13.0312 9.37109 12.6771 9.46224 12.3906 9.64453C12.1042 9.82682 11.888 10.0794 11.7422 10.4023C11.5964 10.7201 11.5234 11.0846 11.5234 11.4961H9.64062C9.64062 10.8346 9.79167 10.2305 10.0938 9.68359C10.3958 9.13151 10.8333 8.69401 11.4062 8.37109C11.9792 8.04297 12.6693 7.87891 13.4766 7.87891C14.237 7.87891 14.8828 8.00651 15.4141 8.26172C15.9453 8.51693 16.349 8.87891 16.625 9.34766C16.9062 9.81641 17.0469 10.3711 17.0469 11.0117C17.0469 11.3659 16.9896 11.7174 16.875 12.0664C16.7604 12.4154 16.5964 12.7643 16.3828 13.1133C16.1745 13.457 15.9271 13.8034 15.6406 14.1523C15.3542 14.4961 15.0391 14.8451 14.6953 15.1992L12.2344 17.9102H17.4844Z" fill="white"/>
</svg>
