<svg width="28" height="29" viewBox="0 0 28 29" fill="none" xmlns="http://www.w3.org/2000/svg">
<rect y="0.410156" width="28" height="28" rx="14" fill="#E54B4B"/>
<path d="M10.5 7.99609V19.4102H8.61719V10.2305L5.82812 11.1758V9.62109L10.2734 7.99609H10.5ZM16.9297 14.1211L15.4297 13.7539L16.0469 8.03516H22.1797V9.62891H17.6094L17.2969 12.418C17.474 12.3138 17.7188 12.2122 18.0312 12.1133C18.3438 12.0091 18.7005 11.957 19.1016 11.957C19.638 11.957 20.1172 12.0456 20.5391 12.2227C20.9661 12.3945 21.3281 12.6471 21.625 12.9805C21.9219 13.3086 22.1484 13.7096 22.3047 14.1836C22.4609 14.6523 22.5391 15.181 22.5391 15.7695C22.5391 16.2956 22.4609 16.7878 22.3047 17.2461C22.1536 17.7044 21.9245 18.1081 21.6172 18.457C21.3099 18.806 20.9219 19.0794 20.4531 19.2773C19.9896 19.4701 19.4401 19.5664 18.8047 19.5664C18.3307 19.5664 17.875 19.4987 17.4375 19.3633C17.0052 19.2227 16.6172 19.0169 16.2734 18.7461C15.9297 18.4701 15.6536 18.1315 15.4453 17.7305C15.237 17.3242 15.1172 16.8581 15.0859 16.332H16.9297C16.9766 16.7018 17.0781 17.0169 17.2344 17.2773C17.3958 17.5326 17.6094 17.7279 17.875 17.8633C18.1406 17.9987 18.4479 18.0664 18.7969 18.0664C19.1146 18.0664 19.388 18.0117 19.6172 17.9023C19.8464 17.7878 20.0365 17.6263 20.1875 17.418C20.3438 17.2044 20.4583 16.9544 20.5312 16.668C20.6094 16.3815 20.6484 16.0638 20.6484 15.7148C20.6484 15.3815 20.6042 15.0768 20.5156 14.8008C20.4323 14.5247 20.3047 14.2852 20.1328 14.082C19.9661 13.8789 19.7552 13.7227 19.5 13.6133C19.2448 13.4987 18.9505 13.4414 18.6172 13.4414C18.1693 13.4414 17.8255 13.5065 17.5859 13.6367C17.3516 13.7669 17.1328 13.9284 16.9297 14.1211Z" fill="white"/>
</svg>
