<svg width="28" height="29" viewBox="0 0 28 29" fill="none" xmlns="http://www.w3.org/2000/svg">
<rect y="0.410156" width="28" height="28" rx="14" fill="#E54B4B"/>
<path d="M10.5 7.99609V19.4102H8.61719V10.2305L5.82812 11.1758V9.62109L10.2734 7.99609H10.5ZM17.1641 12.8711H18.2891C18.7266 12.8711 19.0885 12.7956 19.375 12.6445C19.6667 12.4935 19.8828 12.2852 20.0234 12.0195C20.1641 11.7539 20.2344 11.4492 20.2344 11.1055C20.2344 10.7461 20.1693 10.4388 20.0391 10.1836C19.9141 9.92318 19.7214 9.72266 19.4609 9.58203C19.2057 9.44141 18.8802 9.37109 18.4844 9.37109C18.151 9.37109 17.849 9.4388 17.5781 9.57422C17.3125 9.70443 17.1016 9.89193 16.9453 10.1367C16.7891 10.3763 16.7109 10.6628 16.7109 10.9961H14.8203C14.8203 10.3919 14.9792 9.85547 15.2969 9.38672C15.6146 8.91797 16.0469 8.55078 16.5938 8.28516C17.1458 8.01432 17.7656 7.87891 18.4531 7.87891C19.1875 7.87891 19.8281 8.0013 20.375 8.24609C20.9271 8.48568 21.3568 8.84505 21.6641 9.32422C21.9714 9.80339 22.125 10.3971 22.125 11.1055C22.125 11.4284 22.0495 11.7565 21.8984 12.0898C21.7474 12.4232 21.5234 12.7279 21.2266 13.0039C20.9297 13.2747 20.5599 13.4961 20.1172 13.668C19.6745 13.8346 19.1615 13.918 18.5781 13.918H17.1641V12.8711ZM17.1641 14.3398V13.3086H18.5781C19.2448 13.3086 19.8125 13.3867 20.2812 13.543C20.7552 13.6992 21.1406 13.9154 21.4375 14.1914C21.7344 14.4622 21.9505 14.7721 22.0859 15.1211C22.2266 15.4701 22.2969 15.8398 22.2969 16.2305C22.2969 16.7617 22.2005 17.2357 22.0078 17.6523C21.8203 18.0638 21.5521 18.4128 21.2031 18.6992C20.8542 18.9857 20.4453 19.2018 19.9766 19.3477C19.513 19.4935 19.0078 19.5664 18.4609 19.5664C17.9714 19.5664 17.5026 19.4987 17.0547 19.3633C16.6068 19.2279 16.2057 19.0273 15.8516 18.7617C15.4974 18.4909 15.2161 18.1549 15.0078 17.7539C14.8047 17.3477 14.7031 16.8789 14.7031 16.3477H16.5859C16.5859 16.6862 16.6641 16.9857 16.8203 17.2461C16.9818 17.5013 17.2057 17.7018 17.4922 17.8477C17.7839 17.9935 18.1172 18.0664 18.4922 18.0664C18.888 18.0664 19.2292 17.9961 19.5156 17.8555C19.8021 17.7148 20.0208 17.5065 20.1719 17.2305C20.3281 16.9544 20.4062 16.6211 20.4062 16.2305C20.4062 15.7878 20.3203 15.4284 20.1484 15.1523C19.9766 14.8763 19.7318 14.6732 19.4141 14.543C19.0964 14.4076 18.7214 14.3398 18.2891 14.3398H17.1641Z" fill="white"/>
</svg>
