<svg width="28" height="29" viewBox="0 0 28 29" fill="none" xmlns="http://www.w3.org/2000/svg">
<rect y="0.410156" width="28" height="28" rx="14" fill="#E54B4B"/>
<path d="M7.57031 12.8711H8.69531C9.13281 12.8711 9.49479 12.7956 9.78125 12.6445C10.0729 12.4935 10.2891 12.2852 10.4297 12.0195C10.5703 11.7539 10.6406 11.4492 10.6406 11.1055C10.6406 10.7461 10.5755 10.4388 10.4453 10.1836C10.3203 9.92318 10.1276 9.72266 9.86719 9.58203C9.61198 9.44141 9.28646 9.37109 8.89062 9.37109C8.55729 9.37109 8.25521 9.4388 7.98438 9.57422C7.71875 9.70443 7.50781 9.89193 7.35156 10.1367C7.19531 10.3763 7.11719 10.6628 7.11719 10.9961H5.22656C5.22656 10.3919 5.38542 9.85547 5.70312 9.38672C6.02083 8.91797 6.45312 8.55078 7 8.28516C7.55208 8.01432 8.17188 7.87891 8.85938 7.87891C9.59375 7.87891 10.2344 8.0013 10.7812 8.24609C11.3333 8.48568 11.763 8.84505 12.0703 9.32422C12.3776 9.80339 12.5312 10.3971 12.5312 11.1055C12.5312 11.4284 12.4557 11.7565 12.3047 12.0898C12.1536 12.4232 11.9297 12.7279 11.6328 13.0039C11.3359 13.2747 10.9661 13.4961 10.5234 13.668C10.0807 13.8346 9.56771 13.918 8.98438 13.918H7.57031V12.8711ZM7.57031 14.3398V13.3086H8.98438C9.65104 13.3086 10.2188 13.3867 10.6875 13.543C11.1615 13.6992 11.5469 13.9154 11.8438 14.1914C12.1406 14.4622 12.3568 14.7721 12.4922 15.1211C12.6328 15.4701 12.7031 15.8398 12.7031 16.2305C12.7031 16.7617 12.6068 17.2357 12.4141 17.6523C12.2266 18.0638 11.9583 18.4128 11.6094 18.6992C11.2604 18.9857 10.8516 19.2018 10.3828 19.3477C9.91927 19.4935 9.41406 19.5664 8.86719 19.5664C8.3776 19.5664 7.90885 19.4987 7.46094 19.3633C7.01302 19.2279 6.61198 19.0273 6.25781 18.7617C5.90365 18.4909 5.6224 18.1549 5.41406 17.7539C5.21094 17.3477 5.10938 16.8789 5.10938 16.3477H6.99219C6.99219 16.6862 7.07031 16.9857 7.22656 17.2461C7.38802 17.5013 7.61198 17.7018 7.89844 17.8477C8.1901 17.9935 8.52344 18.0664 8.89844 18.0664C9.29427 18.0664 9.63542 17.9961 9.92188 17.8555C10.2083 17.7148 10.4271 17.5065 10.5781 17.2305C10.7344 16.9544 10.8125 16.6211 10.8125 16.2305C10.8125 15.7878 10.7266 15.4284 10.5547 15.1523C10.3828 14.8763 10.138 14.6732 9.82031 14.543C9.5026 14.4076 9.1276 14.3398 8.69531 14.3398H7.57031ZM22.5781 17.9102V19.4102H14.9531V18.1211L18.6562 14.082C19.0625 13.6237 19.3828 13.2279 19.6172 12.8945C19.8516 12.5612 20.0156 12.2617 20.1094 11.9961C20.2083 11.7253 20.2578 11.4622 20.2578 11.207C20.2578 10.8477 20.1901 10.5326 20.0547 10.2617C19.9245 9.98568 19.7318 9.76953 19.4766 9.61328C19.2214 9.45182 18.9115 9.37109 18.5469 9.37109C18.125 9.37109 17.7708 9.46224 17.4844 9.64453C17.1979 9.82682 16.9818 10.0794 16.8359 10.4023C16.6901 10.7201 16.6172 11.0846 16.6172 11.4961H14.7344C14.7344 10.8346 14.8854 10.2305 15.1875 9.68359C15.4896 9.13151 15.9271 8.69401 16.5 8.37109C17.0729 8.04297 17.763 7.87891 18.5703 7.87891C19.3307 7.87891 19.9766 8.00651 20.5078 8.26172C21.0391 8.51693 21.4427 8.87891 21.7188 9.34766C22 9.81641 22.1406 10.3711 22.1406 11.0117C22.1406 11.3659 22.0833 11.7174 21.9688 12.0664C21.8542 12.4154 21.6901 12.7643 21.4766 13.1133C21.2682 13.457 21.0208 13.8034 20.7344 14.1523C20.4479 14.4961 20.1328 14.8451 19.7891 15.1992L17.3281 17.9102H22.5781Z" fill="white"/>
</svg>
