<svg width="28" height="29" viewBox="0 0 28 29" fill="none" xmlns="http://www.w3.org/2000/svg">
<rect y="0.410156" width="28" height="28" rx="14" fill="#E54B4B"/>
<path d="M17.2969 16.3086C17.2969 17.0169 17.1328 17.6133 16.8047 18.0977C16.4766 18.582 16.0286 18.9492 15.4609 19.1992C14.8984 19.444 14.263 19.5664 13.5547 19.5664C12.8464 19.5664 12.2083 19.444 11.6406 19.1992C11.0729 18.9492 10.625 18.582 10.2969 18.0977C9.96875 17.6133 9.80469 17.0169 9.80469 16.3086C9.80469 15.8398 9.89583 15.4154 10.0781 15.0352C10.2604 14.6497 10.5182 14.319 10.8516 14.043C11.1901 13.7617 11.5859 13.5456 12.0391 13.3945C12.4974 13.2435 12.9974 13.168 13.5391 13.168C14.2578 13.168 14.901 13.3008 15.4688 13.5664C16.0365 13.832 16.4818 14.1992 16.8047 14.668C17.1328 15.1367 17.2969 15.6836 17.2969 16.3086ZM15.4062 16.2148C15.4062 15.8346 15.3281 15.5013 15.1719 15.2148C15.0156 14.9284 14.7969 14.707 14.5156 14.5508C14.2344 14.3945 13.9089 14.3164 13.5391 14.3164C13.1641 14.3164 12.8385 14.3945 12.5625 14.5508C12.2865 14.707 12.0703 14.9284 11.9141 15.2148C11.763 15.5013 11.6875 15.8346 11.6875 16.2148C11.6875 16.6003 11.763 16.9336 11.9141 17.2148C12.0651 17.4909 12.2812 17.7018 12.5625 17.8477C12.8438 17.9935 13.1745 18.0664 13.5547 18.0664C13.9349 18.0664 14.263 17.9935 14.5391 17.8477C14.8151 17.7018 15.0286 17.4909 15.1797 17.2148C15.3307 16.9336 15.4062 16.6003 15.4062 16.2148ZM17.0391 11.0273C17.0391 11.5951 16.888 12.1003 16.5859 12.543C16.2891 12.9857 15.8776 13.3346 15.3516 13.5898C14.8255 13.8398 14.2266 13.9648 13.5547 13.9648C12.8776 13.9648 12.2734 13.8398 11.7422 13.5898C11.2161 13.3346 10.8021 12.9857 10.5 12.543C10.2031 12.1003 10.0547 11.5951 10.0547 11.0273C10.0547 10.3503 10.2031 9.77995 10.5 9.31641C10.8021 8.84766 11.2161 8.49089 11.7422 8.24609C12.2682 8.0013 12.8698 7.87891 13.5469 7.87891C14.224 7.87891 14.8255 8.0013 15.3516 8.24609C15.8776 8.49089 16.2891 8.84766 16.5859 9.31641C16.888 9.77995 17.0391 10.3503 17.0391 11.0273ZM15.1562 11.0898C15.1562 10.7513 15.0885 10.4544 14.9531 10.1992C14.8229 9.9388 14.638 9.73568 14.3984 9.58984C14.1589 9.44401 13.875 9.37109 13.5469 9.37109C13.2188 9.37109 12.9349 9.44141 12.6953 9.58203C12.4557 9.72266 12.2708 9.92057 12.1406 10.1758C12.0104 10.431 11.9453 10.7357 11.9453 11.0898C11.9453 11.4388 12.0104 11.7435 12.1406 12.0039C12.2708 12.2591 12.4557 12.4596 12.6953 12.6055C12.9401 12.7513 13.2266 12.8242 13.5547 12.8242C13.8828 12.8242 14.1667 12.7513 14.4062 12.6055C14.6458 12.4596 14.8307 12.2591 14.9609 12.0039C15.0911 11.7435 15.1562 11.4388 15.1562 11.0898Z" fill="white"/>
</svg>
