<svg width="28" height="29" viewBox="0 0 28 29" fill="none" xmlns="http://www.w3.org/2000/svg">
<rect y="0.410156" width="28" height="28" rx="14" fill="#E54B4B"/>
<path d="M10.5 7.99609V19.4102H8.61719V10.2305L5.82812 11.1758V9.62109L10.2734 7.99609H10.5ZM22.3672 12.7695V14.6289C22.3672 15.5195 22.2786 16.2799 22.1016 16.9102C21.9297 17.5352 21.6797 18.043 21.3516 18.4336C21.0234 18.8242 20.6302 19.1107 20.1719 19.293C19.7188 19.4753 19.2109 19.5664 18.6484 19.5664C18.2005 19.5664 17.7839 19.5091 17.3984 19.3945C17.0182 19.2799 16.6745 19.1003 16.3672 18.8555C16.0599 18.6107 15.7969 18.2956 15.5781 17.9102C15.3646 17.5195 15.1979 17.0534 15.0781 16.5117C14.9635 15.9701 14.9062 15.3424 14.9062 14.6289V12.7695C14.9062 11.8737 14.9948 11.1185 15.1719 10.5039C15.349 9.88411 15.6016 9.38151 15.9297 8.99609C16.2578 8.60547 16.6484 8.32161 17.1016 8.14453C17.5599 7.96745 18.0703 7.87891 18.6328 7.87891C19.0859 7.87891 19.5026 7.9362 19.8828 8.05078C20.2682 8.16016 20.612 8.33464 20.9141 8.57422C21.2214 8.8138 21.4818 9.1263 21.6953 9.51172C21.9141 9.89193 22.0807 10.3529 22.1953 10.8945C22.3099 11.431 22.3672 12.056 22.3672 12.7695ZM20.4844 14.8945V12.4883C20.4844 12.0352 20.4583 11.6367 20.4062 11.293C20.3542 10.944 20.276 10.6497 20.1719 10.4102C20.0729 10.1654 19.9479 9.96745 19.7969 9.81641C19.6458 9.66016 19.474 9.54818 19.2812 9.48047C19.0885 9.40755 18.8724 9.37109 18.6328 9.37109C18.3411 9.37109 18.0807 9.42839 17.8516 9.54297C17.6224 9.65234 17.4297 9.82943 17.2734 10.0742C17.1172 10.319 16.9974 10.6419 16.9141 11.043C16.8359 11.4388 16.7969 11.9206 16.7969 12.4883V14.8945C16.7969 15.3529 16.8229 15.7565 16.875 16.1055C16.9271 16.4544 17.0052 16.7539 17.1094 17.0039C17.2135 17.2487 17.3385 17.4518 17.4844 17.6133C17.6354 17.7695 17.8073 17.8841 18 17.957C18.1979 18.0299 18.4141 18.0664 18.6484 18.0664C18.9453 18.0664 19.2083 18.0091 19.4375 17.8945C19.6667 17.7799 19.8594 17.5977 20.0156 17.3477C20.1719 17.0924 20.2891 16.7617 20.3672 16.3555C20.4453 15.9492 20.4844 15.4622 20.4844 14.8945Z" fill="white"/>
</svg>
