<svg width="28" height="29" viewBox="0 0 28 29" fill="none" xmlns="http://www.w3.org/2000/svg">
<rect y="0.410156" width="28" height="28" rx="14" fill="#E54B4B"/>
<path d="M11.8359 14.1211L10.3359 13.7539L10.9531 8.03516H17.0859V9.62891H12.5156L12.2031 12.418C12.3802 12.3138 12.625 12.2122 12.9375 12.1133C13.25 12.0091 13.6068 11.957 14.0078 11.957C14.5443 11.957 15.0234 12.0456 15.4453 12.2227C15.8724 12.3945 16.2344 12.6471 16.5312 12.9805C16.8281 13.3086 17.0547 13.7096 17.2109 14.1836C17.3672 14.6523 17.4453 15.181 17.4453 15.7695C17.4453 16.2956 17.3672 16.7878 17.2109 17.2461C17.0599 17.7044 16.8307 18.1081 16.5234 18.457C16.2161 18.806 15.8281 19.0794 15.3594 19.2773C14.8958 19.4701 14.3464 19.5664 13.7109 19.5664C13.237 19.5664 12.7812 19.4987 12.3438 19.3633C11.9115 19.2227 11.5234 19.0169 11.1797 18.7461C10.8359 18.4701 10.5599 18.1315 10.3516 17.7305C10.1432 17.3242 10.0234 16.8581 9.99219 16.332H11.8359C11.8828 16.7018 11.9844 17.0169 12.1406 17.2773C12.3021 17.5326 12.5156 17.7279 12.7812 17.8633C13.0469 17.9987 13.3542 18.0664 13.7031 18.0664C14.0208 18.0664 14.2943 18.0117 14.5234 17.9023C14.7526 17.7878 14.9427 17.6263 15.0938 17.418C15.25 17.2044 15.3646 16.9544 15.4375 16.668C15.5156 16.3815 15.5547 16.0638 15.5547 15.7148C15.5547 15.3815 15.5104 15.0768 15.4219 14.8008C15.3385 14.5247 15.2109 14.2852 15.0391 14.082C14.8724 13.8789 14.6615 13.7227 14.4062 13.6133C14.151 13.4987 13.8568 13.4414 13.5234 13.4414C13.0755 13.4414 12.7318 13.5065 12.4922 13.6367C12.2578 13.7669 12.0391 13.9284 11.8359 14.1211Z" fill="white"/>
</svg>
