<svg width="28" height="29" viewBox="0 0 28 29" fill="none" xmlns="http://www.w3.org/2000/svg">
<rect y="0.410156" width="28" height="28" rx="14" fill="#E54B4B"/>
<path d="M11.375 17.9258H11.5312C12.25 17.9258 12.849 17.832 13.3281 17.6445C13.8125 17.4518 14.1979 17.1862 14.4844 16.8477C14.7708 16.5091 14.9766 16.1107 15.1016 15.6523C15.2266 15.194 15.2891 14.6966 15.2891 14.1602V12.1992C15.2891 11.7357 15.2396 11.3294 15.1406 10.9805C15.0469 10.6263 14.9115 10.332 14.7344 10.0977C14.5625 9.85807 14.362 9.67839 14.1328 9.55859C13.9089 9.4388 13.6667 9.37891 13.4062 9.37891C13.1198 9.37891 12.862 9.44401 12.6328 9.57422C12.4089 9.69922 12.2188 9.8737 12.0625 10.0977C11.9115 10.3164 11.7943 10.5742 11.7109 10.8711C11.6328 11.1628 11.5938 11.4753 11.5938 11.8086C11.5938 12.1211 11.6302 12.4232 11.7031 12.7148C11.7812 13.0013 11.8958 13.2565 12.0469 13.4805C12.1979 13.7044 12.388 13.8815 12.6172 14.0117C12.8464 14.1419 13.1146 14.207 13.4219 14.207C13.7135 14.207 13.9818 14.1523 14.2266 14.043C14.4714 13.9284 14.6849 13.7747 14.8672 13.582C15.0495 13.3893 15.1927 13.1732 15.2969 12.9336C15.401 12.694 15.4583 12.4492 15.4688 12.1992L16.1875 12.418C16.1875 12.8138 16.1042 13.2044 15.9375 13.5898C15.776 13.9701 15.5495 14.319 15.2578 14.6367C14.9714 14.9492 14.6354 15.1992 14.25 15.3867C13.8698 15.5742 13.4557 15.668 13.0078 15.668C12.4661 15.668 11.987 15.5664 11.5703 15.3633C11.1589 15.1549 10.8151 14.8737 10.5391 14.5195C10.2682 14.1654 10.0651 13.7591 9.92969 13.3008C9.79427 12.8424 9.72656 12.3607 9.72656 11.8555C9.72656 11.3086 9.8099 10.7956 9.97656 10.3164C10.1432 9.83724 10.3854 9.41536 10.7031 9.05078C11.0208 8.68099 11.4062 8.39453 11.8594 8.19141C12.3177 7.98307 12.8359 7.87891 13.4141 7.87891C14.0286 7.87891 14.5677 7.9987 15.0312 8.23828C15.4948 8.47786 15.8854 8.80859 16.2031 9.23047C16.5208 9.65234 16.7604 10.1419 16.9219 10.6992C17.0833 11.2565 17.1641 11.8555 17.1641 12.4961V13.1602C17.1641 13.832 17.1042 14.4805 16.9844 15.1055C16.8646 15.7253 16.6693 16.3008 16.3984 16.832C16.1328 17.3581 15.7812 17.8216 15.3438 18.2227C14.9115 18.6185 14.3802 18.9284 13.75 19.1523C13.125 19.3711 12.3906 19.4805 11.5469 19.4805H11.375V17.9258Z" fill="white"/>
</svg>
